# xmcd
#
# Track frame offsets: 
#        180
#        15888
#        36352
#        50177
#        63863
#        84497
#        101771
#        111302
#        124233
#        142388
#        155242
#        173333
#
# Disc length: 2517 seconds
#
# Revision: 0
# Processed by: cddbd v1.5.1PL0 Copyright (c) Steve Scherf et al.
# Submitted via: ExactAudioCopy v0.95a5
#
DISCID=a709d30c
DTITLE=Bill Hulley - Two-Lane Blacktop
DYEAR=1997
DGENRE=Blues
TTITLE0=Alligator Gar
TTITLE1=Whem Something Is Wrong With My Baby
TTITLE2=Slide-O-Rama
TTITLE3=Two-Lane Blacktop
TTITLE4=Midnight In Memphis
TTITLE5=The Stumble
TTITLE6=One By One
TTITLE7=Such A Long Way From Home
TTITLE8=The Letter
TTITLE9=Street Racer
TTITLE10=The Dark End Of The Street
TTITLE11=Walking Papers
EXTD=
EXTT0=
EXTT1=
EXTT2=
EXTT3=
EXTT4=
EXTT5=
EXTT6=
EXTT7=
EXTT8=
EXTT9=
EXTT10=
EXTT11=
PLAYORDER=
